<svg xmlns="http://www.w3.org/2000/svg" width="20" height="20" fill="none"><g stroke="#121417" stroke-linecap="round" stroke-linejoin="round" stroke-width="2" clip-path="url(#a)"><path d="M14.95 14.95A8.392 8.392 0 0 1 10 16.667C4.168 16.667.835 10 .835 10a15.375 15.375 0 0 1 4.217-4.95m3.2-1.517a7.6 7.6 0 0 1 1.75-.2c5.833 0 9.166 6.667 9.166 6.667a15.412 15.412 0 0 1-1.8 2.658m-5.6-.891a2.5 2.5 0 1 1-3.533-3.534M.834.833l18.333 18.334"/></g><defs><clipPath id="a"><path fill="#fff" d="M0 0h20v20H0z"/></clipPath></defs></svg>