<svg xmlns="http://www.w3.org/2000/svg" width="14" height="8" fill="none"><mask id="a" fill="#fff"><path d="M7 7.752.75 1.502l.875-.875L7 6.002 12.375.627l.875.875L7 7.752Z"/></mask><path fill="#121417" d="M7 7.752.75 1.502l.875-.875L7 6.002 12.375.627l.875.875L7 7.752Z"/><path fill="#121417" d="m7 7.752-1.06 1.06L7 9.874l1.06-1.06L7 7.752ZM.75 1.502-.31.442l-1.061 1.06 1.06 1.06L.75 1.503Zm.875-.875 1.06-1.06-1.06-1.061-1.06 1.06L1.624.627ZM7 6.002l-1.06 1.06L7 8.124l1.06-1.06L7 6.002ZM12.375.627l1.06-1.06-1.06-1.061-1.06 1.06 1.06 1.061Zm.875.875 1.06 1.06 1.061-1.06-1.06-1.06-1.061 1.06Zm-5.19 5.19L1.81.441l-2.12 2.12 6.25 6.25 2.12-2.12Zm-6.25-4.13.876-.874L.564-.434-.31.441l2.122 2.122ZM.565 1.689 5.94 7.063 8.061 4.94 2.686-.434.564 1.688Zm7.497 5.375 5.375-5.375-2.122-2.122L5.94 4.941l2.122 2.122Zm3.253-5.375.875.875L14.311.44l-.875-.875-2.122 2.122ZM12.19.44l-6.25 6.25 2.122 2.122 6.25-6.25L12.189.44Z" mask="url(#a)"/></svg>